<svg width="3332" height="553" viewBox="0 0 3332 553" fill="none" xmlns="http://www.w3.org/2000/svg">
<path fill-rule="evenodd" clip-rule="evenodd" d="M517.24 274.516C517.24 392.659 419.883 489.895 301.601 489.895C183.311 489.895 85.9547 392.659 85.9547 274.516C85.9547 156.38 183.311 59.144 301.601 59.144C419.883 59.144 517.24 156.38 517.24 274.516Z" fill="#263976"/>
<path fill-rule="evenodd" clip-rule="evenodd" d="M304.571 78.7063C304.569 79.1708 304.384 79.616 304.057 79.9458C303.73 80.2757 303.285 80.4638 302.82 80.4697C302.354 80.4697 301.907 80.2847 301.577 79.9554C301.247 79.6261 301.062 79.1794 301.062 78.7137C301.062 78.248 301.247 77.8014 301.577 77.4721C301.907 77.1428 302.354 76.9578 302.82 76.9578C303.778 76.9578 304.571 77.7423 304.571 78.7063ZM316.736 105.3C316.732 105.871 316.503 106.418 316.098 106.823C315.694 107.227 315.146 107.455 314.574 107.459C314.001 107.457 313.452 107.229 313.047 106.825C312.642 106.42 312.414 105.872 312.412 105.3C312.414 104.728 312.642 104.18 313.047 103.775C313.452 103.371 314.001 103.142 314.574 103.14C315.756 103.14 316.736 104.119 316.736 105.3ZM348.345 148.743C348.343 149.316 348.115 149.864 347.71 150.268C347.305 150.673 346.756 150.901 346.183 150.903C345.641 150.858 345.135 150.611 344.767 150.211C344.398 149.811 344.193 149.287 344.193 148.743C344.193 148.2 344.398 147.676 344.767 147.276C345.135 146.876 345.641 146.629 346.183 146.584C346.756 146.586 347.305 146.814 347.71 147.219C348.115 147.623 348.343 148.171 348.345 148.743ZM297.546 120.274C297.544 120.739 297.358 121.185 297.029 121.514C296.699 121.843 296.253 122.028 295.788 122.03C295.323 122.026 294.879 121.84 294.552 121.511C294.224 121.182 294.039 120.738 294.037 120.274C294.037 119.31 294.83 118.518 295.788 118.518C296.753 118.518 297.546 119.31 297.546 120.274ZM316.459 130.265C316.455 130.729 316.269 131.173 315.94 131.502C315.611 131.83 315.166 132.017 314.701 132.021C314.237 132.017 313.792 131.83 313.465 131.501C313.137 131.173 312.952 130.728 312.95 130.265C312.95 129.301 313.743 128.501 314.701 128.501C315.666 128.501 316.459 129.301 316.459 130.265ZM291.875 102.326C291.875 103.514 290.895 104.493 289.713 104.493C289.16 104.46 288.641 104.218 288.262 103.816C287.882 103.414 287.671 102.882 287.671 102.33C287.671 101.777 287.882 101.245 288.262 100.843C288.641 100.441 289.16 100.199 289.713 100.166C290.286 100.168 290.834 100.397 291.239 100.801C291.645 101.206 291.873 101.754 291.875 102.326ZM263.228 119.736C263.226 120.201 263.041 120.647 262.711 120.976C262.382 121.305 261.936 121.49 261.47 121.492C261.005 121.49 260.558 121.305 260.229 120.976C259.9 120.647 259.714 120.201 259.712 119.736C259.712 118.772 260.505 117.98 261.47 117.98C262.435 117.98 263.228 118.772 263.228 119.736ZM268.361 123.248C268.357 123.713 268.17 124.157 267.841 124.486C267.513 124.814 267.068 125 266.603 125.004C266.137 125 265.692 124.814 265.364 124.486C265.035 124.157 264.848 123.713 264.844 123.248C264.844 122.782 265.03 122.336 265.359 122.007C265.689 121.677 266.136 121.492 266.603 121.492C267.069 121.492 267.516 121.677 267.846 122.007C268.175 122.336 268.361 122.782 268.361 123.248ZM273.5 126.753C273.5 127.218 273.315 127.665 272.985 127.994C272.656 128.324 272.209 128.509 271.742 128.509C271.276 128.509 270.829 128.324 270.499 127.994C270.169 127.665 269.984 127.218 269.984 126.753C269.984 126.287 270.169 125.84 270.499 125.511C270.829 125.182 271.276 124.997 271.742 124.997C272.209 124.997 272.656 125.182 272.985 125.511C273.315 125.84 273.5 126.287 273.5 126.753ZM265.66 133.5C265.656 133.965 265.47 134.41 265.141 134.74C264.812 135.07 264.367 135.258 263.902 135.264C263.554 135.264 263.215 135.161 262.926 134.968C262.637 134.775 262.411 134.502 262.278 134.181C262.145 133.861 262.11 133.508 262.177 133.168C262.244 132.827 262.411 132.514 262.656 132.269C262.901 132.023 263.214 131.855 263.554 131.786C263.895 131.718 264.248 131.751 264.569 131.883C264.891 132.015 265.166 132.239 265.36 132.527C265.554 132.814 265.658 133.153 265.66 133.5ZM224.856 162.111C224.854 162.576 224.668 163.022 224.339 163.351C224.009 163.68 223.563 163.865 223.098 163.867C222.632 163.865 222.186 163.68 221.857 163.351C221.527 163.022 221.342 162.576 221.34 162.111C221.34 161.155 222.133 160.355 223.098 160.355C224.063 160.355 224.856 161.155 224.856 162.111ZM232.42 171.287C232.416 171.752 232.229 172.196 231.9 172.524C231.571 172.853 231.127 173.039 230.661 173.043C230.196 173.039 229.751 172.853 229.423 172.524C229.094 172.196 228.907 171.752 228.903 171.287C228.903 170.323 229.696 169.531 230.661 169.531C231.627 169.531 232.42 170.323 232.42 171.287ZM226.472 319.454C226.47 319.918 226.285 320.362 225.957 320.691C225.63 321.019 225.186 321.206 224.721 321.21C224.255 321.208 223.809 321.022 223.48 320.693C223.151 320.364 222.965 319.919 222.963 319.454C222.992 319.009 223.19 318.592 223.515 318.287C223.841 317.982 224.271 317.812 224.717 317.812C225.164 317.812 225.594 317.982 225.919 318.287C226.245 318.592 226.443 319.009 226.472 319.454ZM227.557 360.349C227.553 360.921 227.324 361.468 226.919 361.872C226.514 362.276 225.967 362.505 225.394 362.509C224.822 362.507 224.273 362.279 223.868 361.874C223.463 361.47 223.234 360.921 223.232 360.349C223.234 359.777 223.463 359.229 223.868 358.824C224.273 358.42 224.822 358.192 225.394 358.19C225.967 358.192 226.516 358.42 226.921 358.824C227.326 359.229 227.555 359.777 227.557 360.349ZM204.319 381.264C204.315 381.729 204.129 382.173 203.8 382.501C203.471 382.83 203.026 383.016 202.561 383.02C202.096 383.016 201.651 382.83 201.322 382.501C200.993 382.173 200.807 381.729 200.803 381.264C200.803 380.3 201.596 379.508 202.561 379.508C203.526 379.508 204.319 380.3 204.319 381.264ZM176.481 389.767C176.435 390.309 176.188 390.814 175.788 391.182C175.387 391.55 174.863 391.755 174.318 391.755C173.774 391.755 173.25 391.55 172.849 391.182C172.449 390.814 172.201 390.309 172.156 389.767C172.156 388.572 173.136 387.6 174.318 387.6C174.893 387.602 175.442 387.832 175.848 388.238C176.253 388.644 176.481 389.194 176.481 389.767ZM170.81 370.87C170.806 371.442 170.577 371.989 170.172 372.393C169.767 372.797 169.22 373.026 168.647 373.03C168.075 373.028 167.526 372.8 167.121 372.395C166.716 371.99 166.487 371.442 166.485 370.87C166.487 370.298 166.716 369.75 167.121 369.345C167.526 368.941 168.075 368.713 168.647 368.711C169.83 368.711 170.81 369.69 170.81 370.87ZM167.563 382.878C167.561 383.342 167.376 383.786 167.048 384.115C166.721 384.444 166.276 384.63 165.812 384.634C165.346 384.632 164.9 384.446 164.571 384.118C164.242 383.789 164.056 383.343 164.054 382.878C164.083 382.433 164.28 382.016 164.606 381.711C164.932 381.406 165.362 381.237 165.808 381.237C166.255 381.237 166.684 381.406 167.01 381.711C167.336 382.016 167.534 382.433 167.563 382.878ZM146.757 372.895C146.755 373.36 146.569 373.806 146.24 374.135C145.91 374.464 145.464 374.649 144.999 374.651C144.533 374.649 144.087 374.464 143.757 374.135C143.428 373.806 143.242 373.36 143.24 372.895C143.24 371.939 144.033 371.139 144.999 371.139C145.964 371.139 146.757 371.939 146.757 372.895ZM219.447 406.625C219.445 407.089 219.26 407.533 218.932 407.862C218.605 408.19 218.16 408.377 217.696 408.381C217.23 408.379 216.784 408.193 216.455 407.864C216.126 407.535 215.94 407.09 215.938 406.625C215.938 405.668 216.731 404.876 217.696 404.876C218.654 404.876 219.447 405.668 219.447 406.625ZM241.338 390.574C241.334 391.146 241.105 391.693 240.7 392.097C240.295 392.501 239.748 392.73 239.175 392.734C238.603 392.73 238.055 392.501 237.651 392.097C237.246 391.693 237.017 391.146 237.013 390.574C237.015 390.002 237.244 389.454 237.649 389.05C238.054 388.645 238.603 388.417 239.175 388.415C239.748 388.417 240.297 388.645 240.702 389.05C241.107 389.454 241.336 390.002 241.338 390.574ZM243.769 411.22C243.765 411.685 243.579 412.129 243.25 412.458C242.921 412.786 242.476 412.972 242.011 412.976C241.546 412.972 241.101 412.786 240.772 412.458C240.443 412.129 240.257 411.685 240.253 411.22C240.253 410.754 240.438 410.308 240.768 409.979C241.097 409.649 241.545 409.464 242.011 409.464C242.477 409.464 242.924 409.649 243.254 409.979C243.584 410.308 243.769 410.754 243.769 411.22ZM333.756 391.523C333.756 391.871 333.653 392.21 333.46 392.499C333.267 392.788 332.992 393.013 332.671 393.146C332.35 393.279 331.996 393.313 331.655 393.246C331.314 393.178 331.001 393.011 330.755 392.765C330.509 392.519 330.342 392.207 330.274 391.866C330.206 391.525 330.241 391.172 330.374 390.851C330.507 390.531 330.732 390.256 331.021 390.063C331.31 389.87 331.65 389.767 331.998 389.767C332.963 389.767 333.756 390.559 333.756 391.523ZM291.875 406.363C291.875 406.829 291.69 407.276 291.36 407.605C291.03 407.934 290.583 408.119 290.117 408.119C289.651 408.119 289.203 407.934 288.874 407.605C288.544 407.276 288.359 406.829 288.359 406.363C288.359 405.898 288.544 405.451 288.874 405.122C289.203 404.792 289.651 404.607 290.117 404.607C290.583 404.607 291.03 404.792 291.36 405.122C291.69 405.451 291.875 405.898 291.875 406.363ZM404.554 427.681C404.552 428.147 404.366 428.592 404.036 428.921C403.707 429.25 403.261 429.435 402.795 429.437C402.331 429.434 401.887 429.247 401.559 428.918C401.231 428.59 401.047 428.145 401.045 427.681C401.045 426.725 401.838 425.933 402.795 425.933C403.76 425.933 404.554 426.725 404.554 427.681ZM413.741 344.688C413.739 345.258 413.511 345.805 413.108 346.21C412.705 346.614 412.158 346.843 411.586 346.847C411.013 346.845 410.464 346.617 410.059 346.212C409.654 345.808 409.426 345.26 409.424 344.688C409.426 344.115 409.654 343.567 410.059 343.163C410.464 342.758 411.013 342.53 411.586 342.528C412.158 342.532 412.705 342.761 413.108 343.165C413.511 343.57 413.739 344.117 413.741 344.688ZM396.451 356.426C396.451 357.398 395.658 358.19 394.693 358.19C394.226 358.188 393.779 358.001 393.449 357.671C393.12 357.34 392.935 356.893 392.935 356.426C392.935 355.47 393.728 354.678 394.693 354.678C395.658 354.678 396.451 355.47 396.451 356.426ZM413.479 359.804C413.479 360.992 412.499 361.971 411.309 361.971C410.736 361.967 410.187 361.737 409.782 361.331C409.377 360.926 409.149 360.377 409.147 359.804C409.147 358.623 410.127 357.644 411.309 357.644C412.499 357.644 413.479 358.623 413.479 359.804ZM396.451 380.719C396.449 381.184 396.263 381.629 395.934 381.958C395.605 382.287 395.159 382.473 394.693 382.475C394.227 382.473 393.781 382.287 393.452 381.958C393.123 381.629 392.937 381.184 392.935 380.719C392.935 380.253 393.12 379.806 393.45 379.477C393.779 379.148 394.227 378.963 394.693 378.963C395.159 378.963 395.606 379.148 395.936 379.477C396.266 379.806 396.451 380.253 396.451 380.719ZM440.495 332.956C440.465 333.401 440.268 333.818 439.942 334.123C439.616 334.428 439.187 334.598 438.74 334.598C438.294 334.598 437.864 334.428 437.538 334.123C437.212 333.818 437.015 333.401 436.986 332.956C436.986 331.992 437.779 331.193 438.744 331.193C439.702 331.193 440.495 331.992 440.495 332.956ZM444.819 343.612C444.817 344.184 444.588 344.732 444.183 345.136C443.778 345.541 443.23 345.769 442.657 345.771C442.084 345.769 441.535 345.541 441.13 345.136C440.725 344.732 440.497 344.184 440.495 343.612C440.495 342.423 441.475 341.445 442.657 341.445C443.231 341.447 443.781 341.676 444.186 342.082C444.591 342.488 444.819 343.038 444.819 343.612ZM475.081 356.299C475.036 356.841 474.789 357.346 474.388 357.714C473.988 358.082 473.464 358.287 472.919 358.287C472.375 358.287 471.851 358.082 471.45 357.714C471.05 357.346 470.802 356.841 470.757 356.299C470.802 355.758 471.05 355.253 471.45 354.885C471.851 354.516 472.375 354.312 472.919 354.312C473.464 354.312 473.988 354.516 474.388 354.885C474.789 355.253 475.036 355.758 475.081 356.299ZM444.28 378.836C444.276 379.3 444.09 379.744 443.761 380.073C443.432 380.401 442.987 380.588 442.522 380.592C442.058 380.588 441.614 380.401 441.286 380.072C440.958 379.744 440.773 379.299 440.771 378.836C440.771 377.872 441.564 377.08 442.522 377.08C443.487 377.08 444.28 377.872 444.28 378.836ZM463.732 360.476C463.73 360.94 463.545 361.385 463.218 361.713C462.89 362.042 462.446 362.228 461.981 362.232C461.516 362.23 461.07 362.045 460.74 361.716C460.411 361.387 460.225 360.941 460.223 360.476C460.252 360.031 460.45 359.614 460.776 359.309C461.101 359.004 461.531 358.835 461.978 358.835C462.424 358.835 462.854 359.004 463.18 359.309C463.505 359.614 463.703 360.031 463.732 360.476ZM460.223 388.818C460.221 389.284 460.035 389.729 459.706 390.058C459.377 390.387 458.931 390.572 458.465 390.574C457.999 390.572 457.553 390.387 457.224 390.058C456.895 389.729 456.709 389.284 456.707 388.818C456.707 387.855 457.5 387.062 458.465 387.062C459.43 387.062 460.223 387.855 460.223 388.818ZM342.42 100.294C342.569 99.7523 342.863 99.2619 343.271 98.8749C343.678 98.4879 344.183 98.2189 344.732 98.0967L345.345 93.4788L346.25 98.134C347.335 98.4479 348.173 99.3296 348.42 100.443L353.103 101.101L348.375 101.93C348.229 102.457 347.944 102.936 347.551 103.317C347.158 103.697 346.67 103.967 346.138 104.097L345.345 108.849L344.537 104.06C344.017 103.907 343.547 103.622 343.173 103.231C342.799 102.84 342.534 102.358 342.405 101.833L337.886 101.101L342.42 100.294ZM221.265 431.365C221.411 430.824 221.704 430.333 222.11 429.946C222.516 429.558 223.021 429.29 223.569 429.168L224.183 424.551L225.095 429.221C225.629 429.371 226.112 429.663 226.493 430.066C226.873 430.468 227.138 430.967 227.257 431.507L231.941 432.172L227.22 433.002C227.072 433.528 226.786 434.006 226.391 434.386C225.997 434.765 225.508 435.033 224.976 435.161L224.183 439.921L223.382 435.139C222.863 434.985 222.393 434.699 222.019 434.309C221.645 433.918 221.38 433.437 221.25 432.912L216.731 432.172L221.265 431.365ZM444.078 388.691C444.223 388.148 444.514 387.655 444.921 387.266C445.327 386.878 445.833 386.608 446.382 386.487L446.996 381.862L447.909 386.532C448.442 386.685 448.924 386.979 449.305 387.383C449.685 387.786 449.95 388.285 450.071 388.826L454.754 389.491L450.026 390.32C449.878 390.847 449.593 391.325 449.2 391.705C448.807 392.086 448.32 392.356 447.789 392.487L446.996 397.24L446.195 392.45C445.676 392.297 445.205 392.011 444.829 391.621C444.454 391.23 444.187 390.748 444.056 390.223L439.537 389.491L444.078 388.691ZM461.72 341.086C461.864 340.544 462.155 340.052 462.56 339.664C462.965 339.275 463.468 339.005 464.016 338.882L464.63 334.264L465.543 338.926C466.627 339.24 467.465 340.122 467.712 341.228L472.396 341.885L467.667 342.715C467.518 343.241 467.233 343.718 466.84 344.098C466.447 344.479 465.961 344.749 465.43 344.882L464.63 349.634L463.837 344.852C463.316 344.7 462.845 344.415 462.469 344.024C462.094 343.633 461.827 343.151 461.697 342.625L457.178 341.885L461.72 341.086ZM242.886 165.25C243.034 164.71 243.325 164.22 243.73 163.833C244.134 163.446 244.637 163.177 245.183 163.053L245.804 158.435L246.717 163.098C247.794 163.404 248.632 164.293 248.879 165.399L253.562 166.064L248.834 166.886C248.688 167.413 248.403 167.892 248.01 168.273C247.617 168.653 247.129 168.923 246.597 169.053L245.804 173.805L245.003 169.016C244.483 168.865 244.012 168.581 243.636 168.192C243.261 167.802 242.994 167.321 242.864 166.796L238.345 166.064L242.886 165.25ZM228.597 265.467C244.525 293.256 263.094 313.603 278.049 332.941C291.329 350.09 317.2 358.683 308.087 366.828C297.815 375.996 272.954 335.519 272.954 335.519C256.428 315.613 240.619 294.504 224.489 266.894L228.597 265.467Z" fill="#FFFFFE"/>
<path fill-rule="evenodd" clip-rule="evenodd" d="M60.166 338.411C137.143 287.914 271.48 255.327 382.124 211.45C466.186 178.124 540.934 136.272 581.117 78.6689C479.286 285.836 195.686 261.312 65.7098 340.339L60.166 338.411Z" fill="#D8262C"/>
<path fill-rule="evenodd" clip-rule="evenodd" d="M239.116 235.683H277.668L305.304 305.197L314.521 314.432H264.336L273.545 305.197L270.276 296.716H242.572L239.722 306.407L246.328 314.432H220.15L229.36 305.197L247.121 243.723L239.116 235.683ZM265.368 284.544L254.213 256.321L246.028 284.544H265.368ZM418.207 235.683H458.218L485.855 305.197L495.072 314.432H444.886L454.096 305.197L450.827 296.716H423.13L420.28 306.407L426.886 314.432H400.701L409.91 305.197L427.671 243.723L418.207 235.683ZM445.911 284.544L434.764 256.321L426.579 284.544H445.911ZM186.813 284.73V243.723L178.807 235.683H205.479L197.474 243.723V305.197L206.691 314.432H171.655L141.475 263.435V305.197L149.233 314.432H121.35L130.559 305.197V243.723L122.562 235.683H157.47L186.813 284.73ZM388.738 255.88L387.915 231.364L379.655 237.058C368.014 232.993 354.465 233.142 344.956 237.64C336.106 241.817 326.559 250.657 327.726 263.195C328.893 275.741 338.627 280.606 347.403 284.573C358.7 289.692 370.984 291.418 370.805 298.173C370.685 302.469 363.548 305.548 358.004 305.369C352.931 305.212 336.457 303.986 327.846 293.757L329.477 319.551L338.672 312.811C349.849 316.756 363.39 318.415 375.929 314.335C388.386 310.278 401.479 299.869 394.207 281.667C391.079 273.851 382.468 269.016 377.328 266.917C372.63 264.989 358.281 259.355 354.271 257.27C349.587 254.841 350.111 247.108 361.378 245.539C371.575 244.119 385.708 252.279 388.738 255.88Z" fill="#FFFFFE"/>
<path fill-rule="evenodd" clip-rule="evenodd" d="M119.778 459.304C274.361 301.73 504.776 228.928 581.117 78.6614C535.143 224.751 288.935 305.324 119.359 466.709L119.778 459.304Z" fill="#D8262C"/>
<path fill-rule="evenodd" clip-rule="evenodd" d="M224.489 266.894C222.641 263.73 220.826 260.546 219.043 257.345C177.827 183.295 183.775 107.721 258.358 140.651C321.666 168.597 382.132 246.996 406.446 302.664C417.713 328.458 447.924 429.699 350.642 388.676L350.447 388.079C442.328 425.866 426.444 330.117 377.261 256.71C349.43 215.164 313.137 180.56 290.251 163.867C214.045 108.259 167.563 142.265 221.07 251.315C223.494 256.246 226.008 260.954 228.597 265.467L224.489 266.894Z" fill="#FFFFFE"/>
<path fill-rule="evenodd" clip-rule="evenodd" d="M674.426 224.527C674.426 237.79 670.812 259.415 640.078 259.415C622.908 259.415 606.157 250.044 606.157 227.553V218.624H626.649V223.242C626.649 233.187 629.103 240.383 639.794 240.383C651.764 240.383 651.764 230.729 651.764 223.526V154.049H674.426V224.527ZM741.071 211.704C739.2 201.333 734.719 195.841 724.761 195.841C711.773 195.841 708.017 205.943 707.733 211.704H741.071ZM707.733 224.684C708.309 237.656 714.661 243.566 726.055 243.566C734.285 243.566 740.928 238.515 742.223 233.912H760.268C754.492 251.487 742.223 258.974 725.337 258.974C701.815 258.974 687.234 242.841 687.234 219.774C687.234 197.44 702.676 180.433 725.337 180.433C750.744 180.433 763.006 201.751 761.562 224.684H707.733ZM798.184 182.436H813.192V196.14H798.184V233.045C798.184 239.957 799.912 241.691 806.848 241.691C809.002 241.691 811.03 241.541 813.192 241.115V257.106C809.728 257.681 805.262 257.823 801.214 257.823C788.66 257.823 777.692 254.954 777.692 240.099V196.14H765.281V182.436H777.692V160.109H798.184V182.436ZM885.328 202.476H902.932C913.459 202.476 922.848 200.167 922.848 187.061C922.848 173.947 913.459 171.638 902.932 171.638H885.328V202.476ZM862.667 154.049H909.127C934.826 154.049 944.776 170.331 944.776 187.061C944.776 203.784 934.826 220.058 909.127 220.058H885.328V256.971H862.667V154.049ZM955.423 182.436H974.912V196.297H975.196C978.952 186.912 989.044 180.433 999.002 180.433C1000.45 180.433 1002.18 180.71 1003.48 181.151V200.167C1001.05 199.692 998.59 199.454 996.122 199.458C981.114 199.458 975.914 210.262 975.914 223.384V256.971H955.423V182.436ZM1043.71 243.566C1057.72 243.566 1061.91 231.588 1061.91 219.774C1061.91 207.826 1057.72 195.841 1043.71 195.841C1029.86 195.841 1025.68 207.826 1025.68 219.774C1025.68 231.588 1029.86 243.566 1043.71 243.566ZM1043.71 180.433C1067.24 180.433 1082.41 196.005 1082.41 219.774C1082.41 243.409 1067.24 258.974 1043.71 258.974C1020.34 258.974 1005.19 243.409 1005.19 219.774C1005.19 196.005 1020.34 180.433 1043.71 180.433ZM1149.75 219.931C1149.75 208.11 1145 195.841 1131.86 195.841C1118.44 195.841 1114.12 207.826 1114.12 219.931C1114.12 232.021 1118.73 243.566 1132.01 243.566C1145.43 243.566 1149.75 232.021 1149.75 219.931ZM1094.34 182.436H1113.83V191.955H1114.12C1119.03 184.02 1127.12 180.433 1136.34 180.433C1159.71 180.433 1170.25 199.316 1170.25 220.492C1170.25 240.383 1159.29 258.974 1137.5 258.974C1128.54 258.974 1120.03 255.103 1115.12 247.736H1114.84V283.199H1094.34V182.436ZM1251.17 256.971H1231.69V246.585H1231.26C1226.07 254.954 1217.13 258.974 1208.47 258.974C1186.68 258.974 1181.18 246.734 1181.18 228.285V182.436H1201.67V224.527C1201.67 236.789 1205.29 242.841 1214.81 242.841C1225.92 242.841 1230.69 236.647 1230.69 221.508V182.436H1251.17V256.971ZM1266.02 256.964H1286.51V154.049H1266.02V256.964ZM1317.23 232.746C1317.38 241.691 1324.9 245.285 1332.97 245.285C1338.89 245.285 1346.38 242.991 1346.38 235.78C1346.38 229.586 1337.88 227.419 1323.15 224.243C1311.32 221.643 1299.48 217.481 1299.48 204.344C1299.48 185.328 1315.93 180.433 1331.95 180.433C1348.26 180.433 1363.28 185.895 1364.86 204.202H1345.38C1344.8 196.297 1338.74 194.122 1331.38 194.122C1326.77 194.122 1319.98 194.982 1319.98 201.027C1319.98 208.387 1331.52 209.403 1343.22 212.145C1355.19 214.88 1366.89 219.199 1366.89 233.045C1366.89 252.645 1349.85 258.974 1332.83 258.974C1315.5 258.974 1298.61 252.495 1297.75 232.746H1317.23ZM1377.96 256.971H1398.46V182.436H1377.96V256.971ZM1377.96 170.914H1398.46V154.049H1377.96V170.914ZM1449.53 243.566C1463.53 243.566 1467.71 231.588 1467.71 219.774C1467.71 207.826 1463.53 195.841 1449.53 195.841C1435.67 195.841 1431.49 207.826 1431.49 219.774C1431.49 231.588 1435.67 243.566 1449.53 243.566ZM1449.53 180.433C1473.05 180.433 1488.2 196.005 1488.2 219.774C1488.2 243.409 1473.05 258.974 1449.53 258.974C1426.14 258.974 1411 243.409 1411 219.774C1411 196.005 1426.14 180.433 1449.53 180.433ZM1500.01 182.436H1519.5V192.83H1519.92C1525.12 184.468 1534.06 180.433 1542.72 180.433C1564.5 180.433 1570 192.68 1570 211.137V256.971H1549.5V214.88C1549.5 202.626 1545.89 196.573 1536.37 196.573C1525.26 196.573 1520.49 202.768 1520.49 217.906V256.971H1500.01V182.436ZM1625.22 154.049H1647.88V237.939H1698.09V256.971H1625.22V154.049ZM1753.63 220.492C1750.17 223.526 1742.95 223.682 1736.6 224.818C1730.25 226.118 1724.47 228.285 1724.47 235.78C1724.47 243.409 1730.41 245.285 1737.03 245.285C1753.05 245.285 1753.63 232.604 1753.63 228.136V220.492ZM1706.29 205.368C1707.45 186.187 1724.62 180.433 1741.36 180.433C1756.23 180.433 1774.13 183.743 1774.13 201.617V240.383C1774.13 247.16 1774.84 253.945 1776.72 256.971H1755.94C1755.17 254.635 1754.68 252.214 1754.5 249.761C1748 256.538 1738.47 258.974 1729.38 258.974C1715.24 258.974 1703.98 251.92 1703.98 236.647C1703.98 219.774 1716.69 215.739 1729.38 214.021C1741.94 212.145 1753.63 212.564 1753.63 204.202C1753.63 195.415 1747.56 194.122 1740.35 194.122C1732.56 194.122 1727.5 197.283 1726.79 205.368H1706.29ZM1825.9 195.841C1813.78 195.841 1808.45 207.236 1808.45 219.774C1808.45 232.171 1813.78 243.566 1825.9 243.566C1838.02 243.566 1843.36 232.171 1843.36 219.774C1843.36 207.236 1838.02 195.841 1825.9 195.841ZM1788.66 154.049H1809.16V191.529H1809.43C1814.5 183.885 1823.74 180.433 1832.97 180.433C1847.84 180.433 1863.87 192.389 1863.87 219.64C1863.87 247.026 1847.84 258.974 1832.97 258.974C1822 258.974 1812.9 255.664 1808.45 247.452H1808.15V256.971H1788.66V154.049ZM1911.74 243.566C1925.73 243.566 1929.92 231.588 1929.92 219.774C1929.92 207.826 1925.73 195.841 1911.74 195.841C1897.88 195.841 1893.69 207.826 1893.69 219.774C1893.69 231.588 1897.88 243.566 1911.74 243.566ZM1911.74 180.433C1935.26 180.433 1950.41 196.005 1950.41 219.774C1950.41 243.409 1935.26 258.974 1911.74 258.974C1888.36 258.974 1873.21 243.409 1873.21 219.774C1873.21 196.005 1888.36 180.433 1911.74 180.433ZM1962.21 182.436H1981.69V196.297H1981.98C1985.75 186.912 1995.83 180.433 2005.81 180.433C2007.24 180.433 2008.96 180.71 2010.27 181.151V200.167C2007.84 199.692 2005.38 199.455 2002.91 199.458C1987.9 199.458 1982.7 210.262 1982.7 223.384V256.971H1962.21V182.436ZM2063.37 220.492C2059.89 223.526 2052.67 223.682 2046.33 224.818C2039.98 226.118 2034.2 228.285 2034.2 235.78C2034.2 243.409 2040.11 245.285 2046.76 245.285C2062.79 245.285 2063.37 232.604 2063.37 228.136V220.492ZM2016.01 205.368C2017.16 186.187 2034.34 180.433 2051.09 180.433C2065.97 180.433 2083.86 183.743 2083.86 201.617V240.383C2083.86 247.16 2084.58 253.945 2086.46 256.971H2065.67C2064.9 254.633 2064.42 252.212 2064.23 249.761C2057.73 256.538 2048.21 258.974 2039.12 258.974C2024.96 258.974 2013.71 251.92 2013.71 236.647C2013.71 219.774 2026.4 215.739 2039.12 214.021C2051.66 212.145 2063.37 212.564 2063.37 204.202C2063.37 195.415 2057.29 194.122 2050.08 194.122C2042.29 194.122 2037.23 197.283 2036.51 205.368H2016.01ZM2124.38 182.436H2139.38V196.14H2124.38V233.045C2124.38 239.957 2126.1 241.691 2133.04 241.691C2135.18 241.691 2137.21 241.541 2139.38 241.115V257.106C2135.92 257.681 2131.44 257.823 2127.39 257.823C2114.85 257.823 2103.87 254.954 2103.87 240.099V196.14H2091.47V182.436H2103.87V160.109H2124.38V182.436ZM2184.1 243.566C2198.1 243.566 2202.28 231.588 2202.28 219.774C2202.28 207.826 2198.1 195.841 2184.1 195.841C2170.25 195.841 2166.05 207.826 2166.05 219.774C2166.05 231.588 2170.25 243.566 2184.1 243.566ZM2184.1 180.433C2207.62 180.433 2222.78 196.005 2222.78 219.774C2222.78 243.409 2207.62 258.974 2184.1 258.974C2160.73 258.974 2145.57 243.409 2145.57 219.774C2145.57 196.005 2160.73 180.433 2184.1 180.433ZM2234.58 182.436H2254.04V196.297H2254.35C2258.11 186.912 2268.2 180.433 2278.18 180.433C2279.61 180.433 2281.34 180.71 2282.63 181.151V200.167C2280.2 199.693 2277.74 199.455 2275.27 199.458C2260.25 199.458 2255.07 210.262 2255.07 223.384V256.971H2234.58V182.436ZM2334.69 266.326C2330.24 278.312 2323.16 283.199 2309.02 283.199C2304.83 283.199 2300.66 282.907 2296.46 282.481V265.617C2300.35 265.901 2304.41 266.483 2308.44 266.326C2315.51 265.617 2317.82 258.271 2315.51 252.361L2289.24 182.436H2311.18L2328.07 233.464H2328.35L2344.66 182.436H2365.88L2334.69 266.326ZM676.042 343.776C673.558 331.268 663.518 324.953 651.24 324.953C630.165 324.953 621.247 342.289 621.247 360.738C621.247 380.905 630.165 397.748 651.368 397.748C666.869 397.748 675.787 386.853 676.902 372.245H688.685C686.448 394.281 672.69 407.656 650.373 407.656C622.856 407.656 609.464 387.354 609.464 361.597C609.464 335.975 624.098 315.045 651.368 315.045C669.839 315.045 685.087 324.953 687.81 343.776H676.042ZM739.268 372.492C735.175 375.466 727.245 375.585 720.175 376.833C713.232 378.074 707.284 380.547 707.284 388.34C707.284 395.282 713.232 397.748 719.674 397.748C733.559 397.748 739.268 389.088 739.268 383.259V372.492ZM756.37 405.295C754.515 406.423 752.158 407.036 748.814 407.036C743.352 407.036 739.888 404.069 739.888 397.135C734.06 403.942 726.25 407.036 717.324 407.036C705.668 407.036 696.129 401.835 696.129 389.088C696.129 374.599 706.91 371.513 717.818 369.406C729.474 367.179 739.395 367.911 739.395 359.991C739.395 350.822 731.831 349.35 725.128 349.35C716.21 349.35 709.641 352.063 709.147 361.478H698.606C699.227 345.629 711.496 340.07 725.756 340.07C737.277 340.07 749.801 342.648 749.801 357.637V390.575C749.801 395.536 749.801 397.748 753.146 397.748C754.021 397.748 755.009 397.621 756.37 397.135V405.295ZM764.817 405.541H775.351V317.152H764.817V405.541ZM790.351 405.541H800.878V341.549H790.351V405.541ZM790.351 330.027H800.878V317.152H790.351V330.027ZM819.604 350.822H808.823V341.549H819.604V332.015C819.604 321.613 825.798 316.174 837.335 316.174C839.31 316.174 842.16 316.532 844.15 317.152V326.313C842.223 325.727 840.218 325.434 838.203 325.447C833.115 325.447 830.138 327.061 830.138 332.635V341.549H842.534V350.822H830.138V405.549H819.604V350.822ZM877.623 397.748C888.65 397.748 897.576 389.088 897.576 373.613C897.576 358.011 888.65 349.35 877.623 349.35C866.587 349.35 857.662 358.011 857.662 373.613C857.662 389.088 866.587 397.748 877.623 397.748ZM877.623 340.07C897.942 340.07 908.731 354.798 908.731 373.613C908.731 392.301 897.942 407.036 877.623 407.036C857.288 407.036 846.507 392.301 846.507 373.613C846.507 354.798 857.288 340.07 877.623 340.07ZM918.786 341.549H928.699V355.044H928.946C934.033 344.762 941.103 339.681 952.505 340.07V351.211C935.522 351.211 929.327 360.865 929.327 377.08V405.549H918.786V341.549ZM958.453 341.549H968.365V351.697H968.62C973.079 343.776 980.268 340.07 989.441 340.07C1006.3 340.07 1011.51 349.724 1011.51 363.458V405.549H1000.97V362.232C1000.97 354.424 996.01 349.35 987.952 349.35C975.189 349.35 968.994 357.891 968.994 369.406V405.549H958.453V341.549ZM1026.03 405.541H1036.56V341.549H1026.03V405.541ZM1026.03 330.027H1036.56V317.152H1026.03V330.027ZM1090.61 372.492C1086.51 375.466 1078.58 375.585 1071.51 376.833C1064.57 378.074 1058.62 380.547 1058.62 388.34C1058.62 395.282 1064.57 397.748 1071.02 397.748C1084.9 397.748 1090.61 389.088 1090.61 383.259V372.492ZM1107.72 405.295C1105.85 406.423 1103.5 407.036 1100.15 407.036C1094.7 407.036 1091.23 404.069 1091.23 397.135C1085.4 403.942 1077.59 407.036 1068.66 407.036C1057.01 407.036 1047.47 401.835 1047.47 389.088C1047.47 374.599 1058.25 371.513 1069.16 369.406C1080.81 367.179 1090.73 367.911 1090.73 359.991C1090.73 350.822 1083.18 349.35 1076.47 349.35C1067.55 349.35 1060.98 352.063 1060.48 361.478H1049.95C1050.56 345.629 1062.84 340.07 1077.09 340.07C1088.62 340.07 1101.15 342.648 1101.15 357.637V390.575C1101.15 395.536 1101.15 397.748 1104.48 397.748C1105.36 397.748 1106.35 397.621 1107.72 397.135V405.295ZM1150.25 405.541H1162.02V317.152H1150.25V405.541ZM1178.12 341.549H1188.04V351.697H1188.31C1192.74 343.776 1199.95 340.07 1209.13 340.07C1225.98 340.07 1231.19 349.724 1231.19 363.458V405.549H1220.64V362.232C1220.64 354.424 1215.7 349.35 1207.63 349.35C1194.86 349.35 1188.67 357.891 1188.67 369.406V405.549H1178.12V341.549ZM1251.53 385.366C1251.9 394.774 1260.08 397.748 1268.75 397.748C1275.33 397.748 1284.26 396.261 1284.26 388.221C1284.26 380.046 1273.84 378.694 1263.29 376.34C1252.89 373.971 1242.37 370.512 1242.37 358.257C1242.37 345.39 1255.13 340.07 1266.28 340.07C1280.42 340.07 1291.69 344.508 1292.57 360.118H1282.03C1281.28 351.943 1274.09 349.35 1267.15 349.35C1260.82 349.35 1253.51 351.091 1253.51 357.517C1253.51 365.072 1264.67 366.297 1274.47 368.651C1284.99 371.012 1295.4 374.464 1295.4 386.853C1295.4 402.089 1281.15 407.036 1268.14 407.036C1253.75 407.036 1241.61 401.215 1240.98 385.366H1251.53ZM1319.72 341.549H1332.48V350.822H1319.72V390.575C1319.72 395.409 1321.08 396.261 1327.65 396.261H1332.48V405.549H1324.43C1313.52 405.549 1309.17 403.33 1309.17 391.561V350.822H1298.27V341.549H1309.17V322.353H1319.72V341.549ZM1342.78 405.541H1353.3V341.549H1342.78V405.541ZM1342.78 330.027H1353.3V317.152H1342.78V330.027ZM1382.32 341.549H1395.1V350.822H1382.32V390.575C1382.32 395.409 1383.68 396.261 1390.25 396.261H1395.1V405.549H1387.03C1376.13 405.549 1371.78 403.33 1371.78 391.561V350.822H1360.87V341.549H1371.78V322.353H1382.32V341.549ZM1457.8 405.549H1447.89V395.409H1447.64C1443.19 403.33 1435.99 407.036 1426.82 407.036C1409.97 407.036 1404.76 397.389 1404.76 383.633V341.549H1415.3V384.873C1415.3 392.674 1420.26 397.748 1428.31 397.748C1441.08 397.748 1447.27 389.215 1447.27 377.685V341.549H1457.8V405.549ZM1486.34 341.549H1499.09V350.822H1486.34V390.575C1486.34 395.409 1487.69 396.261 1494.26 396.261H1499.09V405.549H1491.04C1480.14 405.549 1475.8 403.33 1475.8 391.561V350.822H1464.89V341.549H1475.8V322.353H1486.34V341.549ZM1553.27 367.426C1552.77 357.39 1545.21 349.35 1534.8 349.35C1523.78 349.35 1517.2 357.637 1516.46 367.426H1553.27ZM1563.44 385.247C1560.58 399.362 1550.42 407.036 1536.05 407.036C1515.58 407.036 1505.92 392.921 1505.3 373.373C1505.3 354.17 1517.95 340.07 1535.42 340.07C1558.1 340.07 1565.06 361.231 1564.42 376.714H1516.46C1516.08 387.855 1522.4 397.748 1536.41 397.748C1545.08 397.748 1551.17 393.541 1553.03 385.247H1563.44ZM1633.48 397.748C1644.53 397.748 1653.44 389.088 1653.44 373.613C1653.44 358.011 1644.53 349.35 1633.48 349.35C1622.45 349.35 1613.53 358.011 1613.53 373.613C1613.53 389.088 1622.45 397.748 1633.48 397.748ZM1633.48 340.07C1653.8 340.07 1664.59 354.798 1664.59 373.613C1664.59 392.301 1653.8 407.036 1633.48 407.036C1613.15 407.036 1602.37 392.301 1602.37 373.613C1602.37 354.798 1613.15 340.07 1633.48 340.07ZM1679.36 350.822H1668.58V341.549H1679.36V332.015C1679.36 321.613 1685.56 316.174 1697.1 316.174C1699.07 316.174 1701.92 316.532 1703.91 317.152V326.313C1701.98 325.727 1699.97 325.434 1697.95 325.447C1692.86 325.447 1689.9 327.061 1689.9 332.635V341.549H1702.28V350.822H1689.9V405.549H1679.36V350.822ZM1764.03 327.061H1734.53V317.152H1805.31V327.061H1775.81V405.549H1764.03V327.061ZM1855.89 367.426C1855.38 357.39 1847.84 349.35 1837.43 349.35C1826.39 349.35 1819.82 357.637 1819.08 367.426H1855.89ZM1866.06 385.247C1863.21 399.362 1853.05 407.036 1838.67 407.036C1818.21 407.036 1808.53 392.921 1807.91 373.373C1807.91 354.17 1820.57 340.07 1838.04 340.07C1860.73 340.07 1867.66 361.231 1867.05 376.714H1819.08C1818.71 387.855 1825.02 397.748 1839.04 397.748C1847.71 397.748 1853.79 393.541 1855.65 385.247H1866.06ZM1919.49 362.105C1917.89 354.05 1912.3 349.35 1903.62 349.35C1888.37 349.35 1883.67 361.366 1883.67 374.352C1883.67 386.114 1888.99 397.748 1902.38 397.748C1912.55 397.748 1918.63 391.807 1919.99 382.153H1930.77C1928.42 397.748 1918.63 407.036 1902.5 407.036C1882.92 407.036 1872.51 393.421 1872.51 374.352C1872.51 355.149 1882.42 340.07 1902.76 340.07C1917.25 340.07 1928.91 346.869 1930.39 362.105H1919.49ZM1940.57 317.152H1951.11V350.957H1951.37C1954.83 343.283 1963.87 340.07 1971.56 340.07C1988.42 340.07 1993.64 349.724 1993.64 363.458V405.549H1983.09V362.232C1983.09 354.424 1978.12 349.35 1970.08 349.35C1957.31 349.35 1951.11 357.891 1951.11 369.406V405.549H1940.57V317.152ZM2007.52 341.549H2017.43V351.697H2017.68C2022.15 343.776 2029.34 340.07 2038.51 340.07C2055.38 340.07 2060.58 349.724 2060.58 363.458V405.549H2050.05V362.232C2050.05 354.424 2045.09 349.35 2037.01 349.35C2024.26 349.35 2018.05 357.891 2018.05 369.406V405.549H2007.52V341.549ZM2102.12 397.748C2113.15 397.748 2122.08 389.088 2122.08 373.613C2122.08 358.011 2113.15 349.35 2102.12 349.35C2091.09 349.35 2082.16 358.011 2082.16 373.613C2082.16 389.088 2091.09 397.748 2102.12 397.748ZM2102.12 340.07C2122.44 340.07 2133.22 354.798 2133.22 373.613C2133.22 392.301 2122.44 407.036 2102.12 407.036C2081.8 407.036 2070.99 392.301 2070.99 373.613C2070.99 354.798 2081.8 340.07 2102.12 340.07ZM2144.27 405.541H2154.81V317.152H2144.27V405.541ZM2196.85 397.748C2207.87 397.748 2216.79 389.088 2216.79 373.613C2216.79 358.011 2207.87 349.35 2196.85 349.35C2185.8 349.35 2176.88 358.011 2176.88 373.613C2176.88 389.088 2185.8 397.748 2196.85 397.748ZM2196.85 340.07C2217.17 340.07 2227.95 354.798 2227.95 373.613C2227.95 392.301 2217.17 407.036 2196.85 407.036C2176.51 407.036 2165.72 392.301 2165.72 373.613C2165.72 354.798 2176.51 340.07 2196.85 340.07ZM2283.24 372.245C2283.24 360.977 2278.28 349.35 2265.03 349.35C2251.51 349.35 2246.06 360.364 2246.06 372.611C2246.06 384.126 2250.27 397.016 2264.15 397.016C2278.04 397.016 2283.24 384.261 2283.24 372.245ZM2293.65 400.102C2293.65 420.912 2284.12 431.545 2263.9 431.545C2251.88 431.545 2237.99 426.725 2237.38 412.737H2247.91C2248.41 420.404 2257.57 423.138 2264.52 423.138C2278.28 423.138 2283.74 413.223 2283.74 398.869V394.662H2283.5C2280.01 402.463 2271.59 406.289 2263.54 406.289C2244.44 406.289 2234.89 391.314 2234.89 373.852C2234.89 358.75 2242.33 340.07 2264.52 340.07C2272.58 340.07 2279.77 343.649 2283.61 350.71H2283.74V341.549H2293.65V400.102ZM2332.72 414.082C2327.88 426.598 2323.54 431.171 2314.12 431.171C2311.64 431.171 2309.15 430.925 2306.8 430.065V420.404C2308.79 421.039 2310.9 421.883 2313 421.883C2317.34 421.883 2319.7 419.791 2321.68 416.085L2326.01 405.183L2300.61 341.549H2312.5L2331.23 393.915H2331.48L2349.44 341.549H2360.6L2332.72 414.082Z" fill="white"/>
<line opacity="0.5" x1="2579" y1="34.2271" x2="2579" y2="518.227" stroke="white" stroke-width="10"/>
<path d="M3215.71 69.4458H3258.51L3216.76 150.2H3179.42L3215.71 69.4458Z" fill="white" stroke="white" stroke-width="1.3333"/>
<mask id="mask0_4_36" style="mask-type:luminance" maskUnits="userSpaceOnUse" x="2788" y="64" width="480" height="425">
<path d="M2788 488.454H3267.45V64H2788V488.454Z" fill="white"/>
</mask>
<g mask="url(#mask0_4_36)">
<path d="M3215.71 69.4458H3258.51L3216.76 150.2H3179.42L3215.71 69.4458Z" fill="white" stroke="white" stroke-width="6.6665"/>
<path d="M3116.73 295.516V255.14H2894.54C2866.57 255.14 2842.73 264.995 2823.03 284.697C2803.32 304.402 2793.47 328.153 2793.47 355.951V480.048L2833.84 461.898V355.951C2833.84 339.238 2839.74 324.988 2851.53 313.198C2863.49 301.413 2877.83 295.516 2894.54 295.516H3116.73Z" fill="white" stroke="white" stroke-width="1.3333"/>
<path d="M3116.73 295.516V255.14H2894.54C2866.57 255.14 2842.73 264.995 2823.03 284.697C2803.32 304.402 2793.47 328.153 2793.47 355.951V480.048L2833.84 461.898V355.951C2833.84 339.238 2839.74 324.988 2851.53 313.198C2863.49 301.413 2877.83 295.516 2894.54 295.516H3116.73Z" fill="white" stroke="white" stroke-width="6.6665"/>
</g>
<path d="M2793.45 102.666H3116.71V143.042H2793.45V102.666Z" fill="white" stroke="white" stroke-width="1.3333"/>
<mask id="mask1_4_36" style="mask-type:luminance" maskUnits="userSpaceOnUse" x="2788" y="64" width="480" height="425">
<path d="M2788 488.454H3267.45V64H2788V488.454Z" fill="white"/>
</mask>
<g mask="url(#mask1_4_36)">
<path d="M2793.45 102.666H3116.71V143.042H2793.45V102.666Z" fill="white" stroke="white" stroke-width="6.6665"/>
</g>
</svg>
